<svg xmlns="http://www.w3.org/2000/svg" version="1.1" xmlns:xlink="http://www.w3.org/1999/xlink" width="512" height="512" x="0" y="0" viewBox="0 0 510 510" style="enable-background:new 0 0 512 512" xml:space="preserve" class=""><g><linearGradient id="a"><stop offset="0" stop-color="#81b823"></stop><stop offset="1" stop-color="#017b4e"></stop></linearGradient><linearGradient xlink:href="#a" id="g" x1="-1051.85" x2="-1012.107" y1="-485.78" y2="-485.78" gradientTransform="rotate(14.98 -3246.048 5665.045)" gradientUnits="userSpaceOnUse"></linearGradient><linearGradient id="b"><stop offset="0" stop-color="#017b4e" stop-opacity="0"></stop><stop offset="1" stop-color="#026841"></stop></linearGradient><linearGradient xlink:href="#b" id="h" x1="-1022.724" x2="-1038.026" y1="-486.755" y2="-485.116" gradientTransform="rotate(14.98 -3246.048 5665.045)" gradientUnits="userSpaceOnUse"></linearGradient><linearGradient xlink:href="#a" id="i" x1="1711.479" x2="1751.222" y1="-1092.237" y2="-1092.237" gradientTransform="scale(1 -1) rotate(-42.37 1847.164 1466.958)" gradientUnits="userSpaceOnUse"></linearGradient><linearGradient xlink:href="#b" id="j" x1="1740.604" x2="1725.303" y1="-1093.211" y2="-1091.572" gradientTransform="scale(1 -1) rotate(-42.37 1847.164 1466.958)" gradientUnits="userSpaceOnUse"></linearGradient><linearGradient id="k" x1="9.873" x2="505.873" y1="57.671" y2="461.671" gradientUnits="userSpaceOnUse"><stop offset="0" stop-color="#5a5a5a"></stop><stop offset="1" stop-color="#444"></stop></linearGradient><linearGradient id="c"><stop offset="0" stop-color="#433f43" stop-opacity="0"></stop><stop offset="1" stop-color="#1a1a1a"></stop></linearGradient><linearGradient xlink:href="#c" id="l" x1="-51.858" x2="510.614" y1="-.31" y2="472.167" gradientUnits="userSpaceOnUse"></linearGradient><linearGradient xlink:href="#c" id="m" x1="114.667" x2="66.293" y1="255" y2="255" gradientUnits="userSpaceOnUse"></linearGradient><linearGradient xlink:href="#c" id="n" x1="363.776" x2="363.776" y1="86" y2="25.996" gradientUnits="userSpaceOnUse"></linearGradient><linearGradient xlink:href="#c" id="o" x1="146.224" x2="146.224" y1="86" y2="25.996" gradientUnits="userSpaceOnUse"></linearGradient><linearGradient xlink:href="#c" id="p" x1="411.279" x2="411.279" y1="458" y2="501" gradientUnits="userSpaceOnUse"></linearGradient><linearGradient xlink:href="#c" id="q" x1="427" x2="481.083" y1="255" y2="255" gradientUnits="userSpaceOnUse"></linearGradient><linearGradient xlink:href="#c" id="r" x1="98.721" x2="98.721" y1="448.152" y2="502.383" gradientUnits="userSpaceOnUse"></linearGradient><linearGradient id="d"><stop offset="0" stop-color="#433f43" stop-opacity="0"></stop><stop offset="1"></stop></linearGradient><linearGradient xlink:href="#d" id="s" x1="103.51" x2="68.843" y1="235.135" y2="186.468" gradientUnits="userSpaceOnUse"></linearGradient><linearGradient xlink:href="#d" id="t" x1="504.96" x2="426.46" y1="390.073" y2="361.073" gradientUnits="userSpaceOnUse"></linearGradient><linearGradient id="e"><stop offset="0" stop-color="#bbec6c"></stop><stop offset="1" stop-color="#81b823"></stop></linearGradient><linearGradient xlink:href="#e" id="u" x1="414.639" x2="486.184" y1="315.58" y2="410.419" gradientUnits="userSpaceOnUse"></linearGradient><linearGradient id="f"><stop offset="0" stop-color="#78a91f" stop-opacity="0"></stop><stop offset=".163" stop-color="#73a620" stop-opacity=".163"></stop><stop offset=".354" stop-color="#659e24" stop-opacity=".354"></stop><stop offset=".559" stop-color="#4e912b" stop-opacity=".559"></stop><stop offset=".774" stop-color="#2d8034" stop-opacity=".774"></stop><stop offset=".994" stop-color="#036941" stop-opacity=".994"></stop><stop offset="1" stop-color="#026841"></stop></linearGradient><linearGradient xlink:href="#f" id="v" x1="463.025" x2="442.025" y1="341.939" y2="369.939" gradientUnits="userSpaceOnUse"></linearGradient><linearGradient xlink:href="#e" id="w" x1="-2932.35" x2="-2892.607" y1="-1438.501" y2="-1438.501" gradientTransform="rotate(-30 1526.988 -6128.125)" gradientUnits="userSpaceOnUse"></linearGradient><linearGradient xlink:href="#f" id="x" x1="-2903.225" x2="-2918.526" y1="-1439.476" y2="-1437.836" gradientTransform="rotate(-30 1526.988 -6128.125)" gradientUnits="userSpaceOnUse"></linearGradient><linearGradient xlink:href="#e" id="y" x1="-3968.879" x2="-3929.136" y1="-2981.031" y2="-2981.031" gradientTransform="rotate(105.01 -3180.067 157.945)" gradientUnits="userSpaceOnUse"></linearGradient><linearGradient xlink:href="#f" id="z" x1="-3939.754" x2="-3955.055" y1="-2982.005" y2="-2980.366" gradientTransform="rotate(105.01 -3180.067 157.945)" gradientUnits="userSpaceOnUse"></linearGradient><linearGradient xlink:href="#e" id="A" x1="19.18" x2="116.613" y1="194.743" y2="295.971" gradientUnits="userSpaceOnUse"></linearGradient><linearGradient xlink:href="#f" id="B" x1="-526.253" x2="-586.253" y1="1154.779" y2="1205.779" gradientTransform="matrix(0 1 1 0 -1113.402 758.583)" gradientUnits="userSpaceOnUse"></linearGradient><linearGradient xlink:href="#e" id="C" x1="548.951" x2="649.858" y1="-6289.171" y2="-6289.171" gradientTransform="rotate(53 -6046.215 -3550.503)" gradientUnits="userSpaceOnUse"></linearGradient><linearGradient xlink:href="#f" id="D" x1="599.404" x2="599.404" y1="-6306.515" y2="-6177.755" gradientTransform="rotate(53 -6046.215 -3550.503)" gradientUnits="userSpaceOnUse"></linearGradient><linearGradient xlink:href="#f" id="E" x1="599.404" x2="599.404" y1="-6344.44" y2="-6211.702" gradientTransform="rotate(53 -6046.215 -3550.503)" gradientUnits="userSpaceOnUse"></linearGradient><linearGradient xlink:href="#f" id="F" x1="599.404" x2="599.404" y1="-6378.201" y2="-6277.917" gradientTransform="rotate(53 -6046.215 -3550.503)" gradientUnits="userSpaceOnUse"></linearGradient><linearGradient xlink:href="#f" id="G" x1="622.9" x2="584.05" y1="-6291.647" y2="-6287.484" gradientTransform="rotate(53 -6046.215 -3550.503)" gradientUnits="userSpaceOnUse"></linearGradient><linearGradient xlink:href="#a" id="H" x1="144.365" x2="332.872" y1="409.12" y2="409.12" gradientUnits="userSpaceOnUse"></linearGradient><linearGradient xlink:href="#b" id="I" x1="187.316" x2="137.872" y1="417.03" y2="434.403" gradientUnits="userSpaceOnUse"></linearGradient><linearGradient id="J" x1="187.586" x2="142.554" y1="409.12" y2="409.12" gradientUnits="userSpaceOnUse"><stop offset="0" stop-color="#01525a" stop-opacity="0"></stop><stop offset="1" stop-color="#01525a"></stop></linearGradient><linearGradient xlink:href="#b" id="K" x1="225.066" x2="146.537" y1="398.309" y2="434.857" gradientUnits="userSpaceOnUse"></linearGradient><linearGradient xlink:href="#b" id="L" x1="1518.961" x2="1518.961" y1="-1327.479" y2="-1182.305" gradientTransform="rotate(60 -527.99 -1528.498)" gradientUnits="userSpaceOnUse"></linearGradient><linearGradient xlink:href="#b" id="M" x1="241.028" x2="219.527" y1="422.086" y2="397.085" gradientUnits="userSpaceOnUse"></linearGradient><path fill="url(#g)" d="M466.601 291.871c-3.718 13.877-1.14 27.957 5.983 39.208a5.821 5.821 0 0 0 7.621 2.042c11.794-6.182 21.067-17.087 24.785-30.964s1.14-27.957-5.983-39.208a5.821 5.821 0 0 0-7.621-2.042c-11.794 6.183-21.067 17.087-24.785 30.964z" opacity="1" data-original="url(#g)"></path><path fill="url(#h)" d="M480.204 333.121c11.794-6.182 21.067-17.087 24.785-30.964s1.14-27.957-5.983-39.208a5.809 5.809 0 0 0-3.412-2.509l-19.6 73.147a5.807 5.807 0 0 0 4.21-.466z" opacity="1" data-original="url(#h)"></path><path fill="url(#i)" d="M23.23 331.892c9.676-10.619 22.921-16.048 36.237-16.123a5.82 5.82 0 0 1 5.832 5.314c1.16 13.266-3.015 26.957-12.691 37.576s-22.921 16.048-36.237 16.123a5.82 5.82 0 0 1-5.832-5.314c-1.161-13.265 3.015-26.957 12.691-37.576z" opacity="1" data-original="url(#i)"></path><path fill="url(#j)" d="M65.298 321.082c1.161 13.266-3.015 26.957-12.691 37.576s-22.921 16.048-36.237 16.123a5.804 5.804 0 0 1-3.953-1.518l51.003-55.977a5.81 5.81 0 0 1 1.878 3.796z" opacity="1" data-original="url(#j)"></path><path fill="url(#k)" d="M411.28 0c-39.07 0-55.814 4.186-84.419 54.419L255 180 183.139 54.419C154.535 4.186 137.791 0 98.721 0c-27.21 0-54.419 14.651-54.419 54.419v422.093c0 22.326 27.209 33.488 54.419 33.488 27.209 0 54.418-11.163 54.418-33.488V207.907l66.279 121.395c8.371 16.047 21.627 20.233 34.186 20.233 13.256 0 27.209-4.884 36.279-20.233l66.977-114.418v261.628c0 22.326 27.209 33.488 54.419 33.488 27.209 0 54.418-11.163 54.418-33.488V54.419C465.698 14.651 439.186 0 411.28 0z" opacity="1" data-original="url(#k)"></path><path fill="url(#l)" d="M411.279 485c-17.563 0-28.047-5.931-29.417-8.387l-.002-261.729a24.998 24.998 0 0 0-18.457-24.128 25.007 25.007 0 0 0-6.545-.874 25 25 0 0 0-21.573 12.373l-66.943 114.362c-2.439 4.117-5.92 7.918-14.737 7.918-7.207 0-9.618-2.191-12.021-6.795-.072-.14-.147-.279-.223-.417l-66.279-121.396a25.004 25.004 0 0 0-21.938-13.022c-2.052 0-4.127.253-6.186.779a25 25 0 0 0-18.818 24.224l-.002 268.706c-1.37 2.456-11.853 8.387-29.416 8.387s-28.047-5.931-29.417-8.387L69.303 54.42c0-10.708 2.743-18.459 8.154-23.038C82.32 27.266 89.872 25 98.722 25c16.557 0 26.299.774 33.602 5.004 8.405 4.87 17.377 16.214 29.091 36.785l71.888 125.627a24.999 24.999 0 0 0 43.395.001L348.56 66.835c11.74-20.617 20.713-31.961 29.118-36.831C384.98 25.774 394.723 25 411.28 25c9.059 0 16.675 2.242 21.444 6.313 5.291 4.516 7.974 12.29 7.974 23.106l-.002 422.194c-1.371 2.456-11.853 8.387-29.417 8.387z" opacity="1" data-original="url(#l)"></path><path fill="url(#m)" d="M153.14 53.097c-7.872-12.125-14.504-19.435-20.816-23.092C125.021 25.774 115.278 25 98.722 25c-8.85 0-16.401 2.266-21.265 6.381-5.411 4.578-8.154 12.329-8.154 23.038l.002 422.194c1.37 2.456 11.854 8.387 29.417 8.387s28.046-5.931 29.416-8.387l.002-268.706a25.001 25.001 0 0 1 25-25.003z" opacity="1" data-original="url(#m)" class=""></path><path fill="url(#n)" d="M432.724 31.313C427.954 27.242 420.338 25 411.279 25c-16.557 0-26.3.774-33.602 5.004-8.405 4.87-17.378 16.214-29.118 36.831l-61.704 107.831h153.842V54.418c0-10.816-2.682-18.59-7.973-23.105z" opacity="1" data-original="url(#n)"></path><path fill="url(#o)" d="M132.323 30.004C125.021 25.774 115.278 25 98.722 25c-8.85 0-16.401 2.266-21.265 6.381-5.411 4.578-8.154 12.329-8.154 23.038v120.248h153.842L161.414 66.79c-11.714-20.571-20.685-31.916-29.091-36.786z" opacity="1" data-original="url(#o)"></path><path fill="url(#p)" d="M356.86 291.251v185.26c0 22.326 27.209 33.488 54.419 33.488 27.209 0 54.418-11.163 54.418-33.488v-185.26z" opacity="1" data-original="url(#p)"></path><path fill="url(#q)" d="M411.28 510c27.209 0 54.418-11.163 54.418-33.488V54.419C465.698 14.651 439.186 0 411.28 0c-23.877 0-39.416 1.566-54.419 14.247v462.265C356.86 498.837 384.069 510 411.28 510z" opacity="1" data-original="url(#q)"></path><path fill="url(#r)" d="M44.302 354.152v122.359c0 22.326 27.209 33.488 54.419 33.488 27.209 0 54.418-11.163 54.418-33.488V354.152z" opacity="1" data-original="url(#r)" class=""></path><path fill="url(#s)" d="M255 179.999 192.819 71.334 44.302 182.83v258.363H153.14V207.907l66.279 121.395c8.371 16.047 21.627 20.233 34.186 20.233.464 0 .929-.008 1.395-.02z" opacity="1" data-original="url(#s)" class=""></path><path fill="url(#t)" d="M465.667 316.348H428.99c-14.894 0-26.968 12.074-26.968 26.968v27.807l63.644 63.645v-118.42z" opacity="1" data-original="url(#t)" class=""></path><path fill="url(#u)" d="M484.741 362.747c-1.77 14.13-8.5 26.86-19.07 36.21v-24.18c2.14-4.3 3.56-8.99 4.18-13.9 1.07-8.55-.4-17.03-4.18-24.56a43.5 43.5 0 0 0-4.55-7.22c-5.41-6.95-13.19-11.38-21.93-12.47-8.73-1.1-17.37 1.28-24.32 6.68-5.24 4.08-8.58 9.95-9.41 16.54-.82 6.59.97 13.11 5.04 18.35 6.23 8.01 17.81 9.46 25.81 3.23 3.27-2.54 7.99-1.95 10.53 1.32s1.95 7.98-1.32 10.53c-14.54 11.3-35.56 8.67-46.86-5.87-13.49-17.35-10.35-42.45 7-55.94 10.11-7.86 22.68-11.32 35.39-9.73 9.2 1.15 17.66 4.84 24.62 10.61 2.67 2.21 5.11 4.74 7.29 7.54 9.52 12.251 13.7 27.471 11.78 42.86z" opacity="1" data-original="url(#u)" class=""></path><path fill="url(#v)" d="M472.961 319.888c-2.18-2.8-4.62-5.33-7.29-7.54a47.514 47.514 0 0 0-20.009-9.802v15.555c6.079 2.041 11.427 5.818 15.459 10.997a43.5 43.5 0 0 1 4.55 7.22c3.78 7.53 5.25 16.01 4.18 24.56-.62 4.91-2.04 9.6-4.18 13.9v24.18c10.57-9.35 17.3-22.08 19.07-36.21 1.92-15.39-2.26-30.61-11.78-42.86z" opacity="1" data-original="url(#v)"></path><path fill="url(#w)" d="M9.94 162.721c7.183 12.441 18.962 20.575 31.955 23.494a5.823 5.823 0 0 0 6.833-3.945c3.968-12.711 2.814-26.979-4.369-39.42s-18.962-20.575-31.955-23.494a5.823 5.823 0 0 0-6.833 3.945c-3.968 12.711-2.814 26.979 4.369 39.42z" opacity="1" data-original="url(#w)"></path><path fill="url(#x)" d="M48.727 182.27c3.968-12.711 2.814-26.979-4.369-39.42s-18.962-20.575-31.955-23.494a5.809 5.809 0 0 0-4.186.638l37.864 65.582a5.806 5.806 0 0 0 2.646-3.306z" opacity="1" data-original="url(#x)"></path><path fill="url(#y)" d="M55.546 208.702c-13.877-3.718-27.957-1.14-39.208 5.983a5.821 5.821 0 0 0-2.042 7.621c6.182 11.794 17.087 21.067 30.964 24.785s27.957 1.14 39.208-5.983a5.821 5.821 0 0 0 2.042-7.621c-6.183-11.794-17.088-21.067-30.964-24.785z" opacity="1" data-original="url(#y)"></path><path fill="url(#z)" d="M14.296 222.305c6.182 11.794 17.087 21.067 30.964 24.785s27.957 1.14 39.208-5.983a5.809 5.809 0 0 0 2.509-3.412l-73.147-19.6a5.802 5.802 0 0 0 .466 4.21z" opacity="1" data-original="url(#z)" class=""></path><path fill="url(#A)" d="m88.322 167.078-22.27 10.46c-23.74 11.15-40.46 32.25-45.89 57.9-5.43 25.66 1.31 51.73 18.49 71.54a82.85 82.85 0 0 0 5.64 5.89v19.36a96.148 96.148 0 0 1-16.17-14.51c-20.88-23.5-29.13-54.69-22.64-85.38 6.42-30.29 26.17-55.21 54.19-68.38l22.27-10.46a7.505 7.505 0 0 1 9.98 3.6c1.76 3.75.15 8.22-3.6 9.98z" opacity="1" data-original="url(#A)"></path><path fill="url(#B)" d="M16.309 301.36c-11.955-20.7-15.9-45.015-10.823-69.024 6.42-30.29 26.17-55.21 54.19-68.38l22.27-10.46a7.505 7.505 0 0 1 9.98 3.6c.373.795.586 1.623.668 2.45v1.471a7.487 7.487 0 0 1-4.268 6.058l-22.27 10.46c-23.74 11.15-40.46 32.25-45.89 57.9-4.931 23.302.176 46.941 14.021 65.924H16.309z" opacity="1" data-original="url(#B)"></path><path fill="url(#C)" d="M108.561 71.677c-29.138 21.942-46 54.137-49.347 87.781-.762 7.657 4.48 14.618 12.05 16.002 33.259 6.078 68.86-1.233 97.998-23.174 29.138-21.942 46-54.137 49.347-87.781.762-7.657-4.48-14.618-12.05-16.002-33.26-6.078-68.861 1.233-97.998 23.174z" opacity="1" data-original="url(#C)"></path><path fill="url(#C)" d="M108.561 71.677c-29.138 21.942-46 54.137-49.347 87.781-.762 7.657 4.48 14.618 12.05 16.002 33.259 6.078 68.86-1.233 97.998-23.174 29.138-21.942 46-54.137 49.347-87.781.762-7.657-4.48-14.618-12.05-16.002-33.26-6.078-68.861 1.233-97.998 23.174z" opacity="1" data-original="url(#C)"></path><path fill="url(#D)" d="M169.262 152.287a125.497 125.497 0 0 1-17.837 11.234l-6.646-2.229c-31.609-10.596-61.343-7.537-82.668 8.521 21.325-16.058 32.479-43.789 31.029-77.096l-.306-7.003a125.532 125.532 0 0 1 15.725-14.038c29.139-21.943 64.737-29.253 97.999-23.175 7.573 1.384 12.814 8.344 12.052 16.005-3.348 33.646-20.209 65.839-49.348 87.781z" opacity="1" data-original="url(#D)"></path><path fill="url(#E)" d="M100.905 140.601c21.325-16.058 51.058-19.117 82.668-8.521l5.363 1.799c17.105-19.858 27.17-44.209 29.674-69.373.762-7.66-4.479-14.621-12.052-16.005-24.877-4.546-51.06-1.6-74.871 9.353l.247 5.651c1.45 33.307-9.704 61.038-31.029 77.096z" opacity="1" data-original="url(#E)"></path><path fill="url(#F)" d="M145.978 106.659c17.556-13.22 40.813-17.621 66.122-12.854a126.009 126.009 0 0 0 6.51-29.299c.762-7.66-4.479-14.621-12.052-16.005a126.05 126.05 0 0 0-29.957-1.838c-2.412 25.64-13.067 46.776-30.623 59.996z" opacity="1" data-original="url(#F)"></path><path fill="url(#G)" d="M71.263 175.46c33.259 6.078 68.86-1.233 97.998-23.174 29.138-21.942 46-54.137 49.347-87.781a14.738 14.738 0 0 0-2.901-10.353L62.114 169.812a14.748 14.748 0 0 0 9.149 5.648z" opacity="1" data-original="url(#G)"></path><path fill="url(#H)" d="M332.219 355.159c-10.68 47.551-40.451 90.662-85.982 116.952-32.081 18.52-67.481 26.091-101.872 23.851 5.45-5.04 8.76-11.43 8.76-19.18V359.809c6.39-4.95 13.19-9.52 20.38-13.67 45.531-26.29 97.752-30.511 144.273-15.99 12.12 3.788 16.978 13.702 14.441 25.01z" opacity="1" data-original="url(#H)"></path><path fill="url(#I)" d="M332.219 355.159c-10.68 47.551-40.451 90.662-85.982 116.952-8.94 5.16-18.12 9.47-27.491 12.95l-9.12-4.36c-19.16-9.14-38.271-14.41-56.501-15.78V359.819a179.77 179.77 0 0 1 20.38-13.68c45.531-26.29 97.752-30.521 144.273-15.99 12.13 3.776 16.988 13.704 14.441 25.01z" opacity="1" data-original="url(#I)"></path><path fill="url(#J)" d="M332.219 355.159c-10.68 47.551-40.451 90.662-85.982 116.952-32.081 18.52-67.481 26.091-101.872 23.851 5.45-5.04 8.76-11.43 8.76-19.18V359.809c6.39-4.95 13.19-9.52 20.38-13.67 45.531-26.29 97.752-30.511 144.273-15.99 12.12 3.788 16.978 13.702 14.441 25.01z" opacity="1" data-original="url(#J)"></path><path fill="url(#K)" d="M332.22 355.16c-7.99 35.56-26.66 68.64-54.61 94.06l-7.36-3.51c-42.23-20.15-84.18-21.48-117.11-3.78v-.12c31.77-19.68 51.58-56.65 55.24-103.27l.64-8.13c35.98-11.5 73.96-11.13 108.76-.26 12.12 3.78 16.98 13.7 14.44 25.01z" opacity="1" data-original="url(#K)"></path><path fill="url(#L)" d="M220.914 402.747c27.436-15.84 61.483-18.062 96.859-6.808a181.697 181.697 0 0 0 14.448-40.781c2.54-11.304-2.318-21.227-14.44-25.011a181.666 181.666 0 0 0-42.541-7.878c-7.942 36.263-26.89 64.638-54.326 80.478z" opacity="1" data-original="url(#L)"></path><path fill="url(#M)" d="M332.219 355.159c-10.68 47.551-40.451 90.662-85.982 116.952-32.081 18.52-67.481 26.091-101.872 23.851 5.45-5.04 8.76-11.43 8.76-19.18v-34.901l177.367-102.042c2.59 4.48 2.947 9.91 1.727 15.32z" opacity="1" data-original="url(#M)"></path></g></svg>